<svg width="14" height="14" viewBox="0 0 14 14" fill="none" xmlns="http://www.w3.org/2000/svg">
<path d="M12.4961 2.90401H9.89997L9.06453 1.45703C8.98639 1.32168 8.84196 1.23828 8.68566 1.23828H5.31434C5.15804 1.23828 5.01361 1.32168 4.93546 1.45703L4.10006 2.90401H1.50391C0.674652 2.90401 0 3.57866 0 4.40791V11.2576C0 12.0868 0.674652 12.7614 1.50391 12.7614H12.4961C13.3253 12.7614 14 12.0868 14 11.2576V4.40791C14 3.57866 13.3253 2.90401 12.4961 2.90401ZM13.125 11.2576C13.125 11.6043 12.8429 11.8864 12.4961 11.8864H1.50391C1.15713 11.8864 0.875 11.6043 0.875 11.2576V4.40791C0.875 4.06111 1.15711 3.77901 1.50391 3.77901H4.35263C4.50893 3.77901 4.65336 3.69561 4.73151 3.56026L5.56691 2.11328H8.43309L9.26849 3.56026C9.34664 3.69561 9.49107 3.77901 9.64737 3.77901H12.4961C12.8429 3.77901 13.125 4.06111 13.125 4.40791V11.2576ZM7 4.23704C5.07388 4.23704 3.50684 5.80409 3.50684 7.73021C3.50684 9.65633 5.07388 11.2233 7 11.2233C8.92612 11.2233 10.4932 9.65633 10.4932 7.73021C10.4932 5.80409 8.92612 4.23704 7 4.23704ZM7 10.3483C5.55636 10.3483 4.38184 9.17385 4.38184 7.73021C4.38184 6.28654 5.55633 5.11204 7 5.11204C8.44367 5.11204 9.61816 6.28654 9.61816 7.73021C9.61816 9.17385 8.44364 10.3483 7 10.3483ZM12.4208 5.02315C12.4208 5.26479 12.2249 5.46065 11.9833 5.46065H11.4091C11.1675 5.46065 10.9716 5.26479 10.9716 5.02315C10.9716 4.78151 11.1675 4.58565 11.4091 4.58565H11.9833C12.2249 4.58565 12.4208 4.78151 12.4208 5.02315ZM7.4375 6.31517C7.4375 6.5568 7.24161 6.75267 7 6.75267C6.461 6.75267 6.02246 7.19118 6.02246 7.73018C6.02246 7.97182 5.82657 8.16768 5.58496 8.16768C5.34335 8.16768 5.14746 7.97182 5.14746 7.73018C5.14746 6.70873 5.97849 5.87767 7 5.87767C7.24161 5.87767 7.4375 6.07353 7.4375 6.31517Z" fill="white"/>
</svg>
